<?xml version="1.0" encoding="UTF-8" standalone="no"?>
<!DOCTYPE svg PUBLIC "-//W3C//DTD SVG 1.1//EN" "http://www.w3.org/Graphics/SVG/1.1/DTD/svg11.dtd">
<svg width="100%" height="100%" viewBox="0 0 120 120" version="1.1" xmlns="http://www.w3.org/2000/svg" xmlns:xlink="http://www.w3.org/1999/xlink" xml:space="preserve" xmlns:serif="http://www.serif.com/" style="fill-rule:evenodd;clip-rule:evenodd;stroke-linejoin:round;stroke-miterlimit:2;">
    <g transform="matrix(3.25274,0,0,2.48671,-65.6085,-55.3722)">
        <g transform="matrix(50,0,0,50,19.9515,58.838)">
            <path d="M0.426,-0.625C0.449,-0.596 0.46,-0.546 0.46,-0.495C0.46,-0.451 0.437,-0.417 0.394,-0.417C0.375,-0.417 0.357,-0.421 0.34,-0.43C0.374,-0.499 0.403,-0.565 0.426,-0.625ZM0.362,-0.372C0.453,-0.372 0.498,-0.436 0.498,-0.523C0.498,-0.598 0.461,-0.665 0.422,-0.665C0.41,-0.665 0.4,-0.652 0.38,-0.605C0.358,-0.554 0.335,-0.502 0.31,-0.449C0.265,-0.484 0.225,-0.541 0.192,-0.6C0.174,-0.631 0.164,-0.647 0.141,-0.647C0.094,-0.647 0.047,-0.572 0.047,-0.489C0.047,-0.431 0.069,-0.372 0.103,-0.372C0.115,-0.372 0.122,-0.378 0.122,-0.386C0.122,-0.389 0.121,-0.391 0.118,-0.395C0.095,-0.425 0.084,-0.455 0.084,-0.502C0.084,-0.541 0.096,-0.575 0.115,-0.599C0.158,-0.511 0.213,-0.429 0.282,-0.392C0.225,-0.275 0.162,-0.156 0.102,-0.042C0.039,-0.025 0.014,0.004 0.014,0.035C0.014,0.064 0.031,0.076 0.044,0.076C0.062,0.076 0.082,0.052 0.116,-0C0.165,0.023 0.217,0.057 0.296,0.093C0.414,0.147 0.477,0.169 0.56,0.169C0.652,0.169 0.719,0.118 0.719,0.092C0.719,0.086 0.716,0.079 0.709,0.079C0.703,0.079 0.698,0.086 0.681,0.097C0.663,0.109 0.64,0.118 0.616,0.118C0.551,0.118 0.513,0.105 0.339,0.035C0.257,0.002 0.206,-0.026 0.132,-0.039C0.188,-0.136 0.255,-0.259 0.315,-0.379C0.33,-0.374 0.346,-0.372 0.362,-0.372Z" style="fill:rgb(215,179,216);fill-rule:nonzero;"/>
        </g>
    </g>
</svg>
